<?xml version="1.0" encoding="utf-8"?>
<!-- Generator: Adobe Illustrator 15.0.2, SVG Export Plug-In . SVG Version: 6.00 Build 0)  -->
<!DOCTYPE svg PUBLIC "-//W3C//DTD SVG 1.1//EN" "http://www.w3.org/Graphics/SVG/1.1/DTD/svg11.dtd">
<svg version="1.1" id="Layer_1" xmlns="http://www.w3.org/2000/svg" xmlns:xlink="http://www.w3.org/1999/xlink" x="0px" y="0px"
	 width="695px" height="373px" viewBox="0 0 695 373" enable-background="new 0 0 695 373" xml:space="preserve">
<g>
	<g>
		<path d="M14.5,317.45h5.851v43.185H14.5V317.45z"/>
		<path d="M59.259,317.45h7.683l23.776,35.49h0.118v-35.49h5.852v43.185h-7.427L65.23,325.157h-0.119v35.478h-5.852V317.45z"/>
		<path d="M144.632,322.949h-13.91v-5.499h33.665v5.499h-13.903v37.686h-5.852V322.949z"/>
		<path d="M198.423,317.45h27.861v5.499h-22.009v12.849h20.483v5.488h-20.483v13.86h23.112v5.488h-28.964V317.45z"/>
		<path d="M263.48,317.45h15.186c11.029,0,13.839,6.656,13.839,12.073c0,5.486-4.08,10.676-10.612,11.404l12.251,19.707h-7.307
			l-10.98-19.04h-6.526v19.04h-5.851V317.45z M269.332,336.489h7.688c4.641,0,9.27-1.121,9.27-6.966c0-5.846-4.629-6.919-9.27-6.919
			h-7.688V336.489z"/>
		<path d="M342.089,317.45h5.303l18.479,43.185h-6.818l-4.342-10.689h-20.549l-4.276,10.689h-6.823L342.089,317.45z M352.575,344.84
			l-8.051-19.826h-0.114l-8.171,19.826H352.575z"/>
		<path d="M429.336,326.791c-2.434-3.186-6.442-4.963-10.427-4.963c-9.711,0-16.104,7.754-16.104,17.572
			c0,9.091,6.036,16.821,16.104,16.821c4.939,0,8.732-2.196,11.285-5.786l4.939,3.734c-1.289,1.766-6.466,7.539-16.343,7.539
			c-13.719,0-22.213-11.453-22.213-22.309c0-13.421,9.209-23.072,22.522-23.072c5.679,0,11.643,2.148,15.127,6.729L429.336,326.791z
			"/>
		<path d="M479.034,322.949h-13.91v-5.499h33.688v5.499H484.88v37.686h-5.846V322.949z"/>
		<path d="M532.836,317.45h5.845v43.185h-5.845V317.45z"/>
		<path d="M571.679,317.45h6.752l12.692,35.12h0.143l13.147-35.12h6.417l-17.034,43.185h-5.488L571.679,317.45z"/>
		<path d="M643.828,317.45h27.844v5.499h-22.023v12.849h20.495v5.488h-20.495v13.86h23.12v5.488h-28.94V317.45z"/>
	</g>
	<g>
		<path d="M19.486,118.324h38.867v24.622h0.662c8.404-17.823,25.583-28.511,45.994-28.511c4.849,0,9.382,0.978,13.91,2.278v37.578
			c-6.471-1.634-12.627-2.922-18.783-2.922c-36.6,0-41.783,30.778-41.783,39.188v83.232H19.486V118.324z"/>
		<path d="M237.122,252.387h-0.978c-11.005,17.501-29.132,25.279-49.877,25.279c-28.804,0-56.671-15.879-56.671-46.657
			c0-50.509,58.956-54.064,97.805-54.064h9.722v-4.223c0-19.087-14.894-29.144-35.621-29.144c-16.2,0-31.088,6.478-41.461,16.189
			l-20.399-20.424c17.161-17.477,41.461-24.932,66.072-24.932c66.381,0,66.381,47.944,66.381,69.979v89.375h-34.971V252.387z
			 M234.861,204.145h-8.1c-21.377,0-58.294,1.622-58.294,23.966c0,14.255,14.572,20.411,27.205,20.411
			c26.555,0,39.189-13.934,39.189-35.621V204.145z"/>
		<path d="M293.471,151.356v-33.032h32.065V73.302h38.879v45.022h42.755v33.032h-42.755v68.01c0,15.544,4.533,25.267,21.664,25.267
			c6.824,0,16.2-1.301,21.092-4.867v32.723c-8.112,3.877-21.712,5.189-30.802,5.189c-41.121,0-50.832-18.467-50.832-55.067v-71.255
			H293.471z"/>
		<rect x="438.975" y="117.715" width="38.866" height="155.477"/>
		<path d="M598.209,114.435c46.955,0,84.532,32.723,84.532,81.622s-37.577,81.622-84.532,81.622
			c-46.954,0-84.508-32.723-84.508-81.622S551.255,114.435,598.209,114.435z M598.209,242.677c28.512,0,45.69-22.356,45.69-46.621
			c0-24.289-17.179-46.645-45.69-46.645c-28.486,0-45.642,22.356-45.642,46.645C552.543,220.321,569.723,242.677,598.209,242.677z"
			/>
	</g>
	<path d="M551.088,11.501c23.524,0,42.612,19.075,42.612,42.606c0,23.537-19.088,42.612-42.612,42.612
		c-23.525,0-42.611-19.075-42.611-42.612C508.477,30.576,527.562,11.501,551.088,11.501z"/>
	<path d="M647.979,21.516c18.468,0,33.428,14.959,33.428,33.415c0,18.443-14.96,33.402-33.428,33.402
		c-18.442,0-33.402-14.959-33.402-33.402C614.576,36.475,629.536,21.516,647.979,21.516z"/>
	<path d="M458.349,29.872c13.838,0,25.075,11.22,25.075,25.059c0,13.837-11.237,25.052-25.075,25.052
		c-13.839,0-25.053-11.214-25.053-25.052C433.296,41.092,444.51,29.872,458.349,29.872z"/>
</g>
</svg>
